<svg xmlns="http://www.w3.org/2000/svg" width="88" height="51" viewBox="0 0 88 51" fill="none">
  <path fill-rule="evenodd" clip-rule="evenodd" d="M79.2288 5.98606V6.12907C79.2288 16.1807 75.2761 25.2722 68.9027 31.8609C62.5192 38.4497 53.7048 42.5255 43.9712 42.5255C34.2375 42.5255 25.4231 38.4497 19.0396 31.8609C12.656 25.2722 8.71354 16.1807 8.71354 6.12907V5.80218H8.72376L9.2038 7.54897C9.55107 16.906 13.371 25.3539 19.3664 31.5443C25.658 38.0411 34.3601 42.0658 43.9712 42.0658C53.5822 42.0658 62.2741 38.0411 68.5759 31.5443C74.5203 25.405 78.3198 17.0695 78.7283 7.80435L79.2288 5.98606ZM26.1279 9.04037C28.4464 13.3614 30.1214 17.6006 30.2542 21.6356C32.3071 21.2474 34.4724 20.9512 36.7297 20.7673L35.7185 12.8608H36.5765L37.5774 20.6958C39.2525 20.5732 40.9684 20.5119 42.7251 20.5119C43.0111 20.5119 43.2971 20.5119 43.5831 20.5222V10.8995H44.441V20.5324C46.494 20.5834 48.4958 20.7162 50.4262 20.9308L51.4578 12.8608H52.3157L51.274 21.0329C53.5925 21.3189 55.7986 21.7173 57.8618 22.2077C57.8413 18.0195 59.547 13.5963 61.9677 9.09145C62.2332 9.30597 62.5703 9.43876 62.938 9.43876C64.9296 9.43876 64.9296 6.41509 62.938 6.41509C62.1004 6.41509 61.4264 7.08928 61.4264 7.92692C61.4264 8.34574 61.6 8.7237 61.8758 8.99951C57.392 13.7087 54.144 14.5565 53.2043 8.2436C53.286 8.25381 53.3575 8.26402 53.4393 8.26402C54.2768 8.26402 54.9509 7.58983 54.9509 6.75219C54.9509 5.91455 54.2768 5.24035 53.4393 5.24035C52.6017 5.24035 51.9276 5.91455 51.9276 6.75219C51.9276 7.37531 52.3055 7.91671 52.8468 8.14145C49.6295 13.0753 46.9331 12.2275 44.8087 5.18927C45.8096 4.8011 46.5144 3.83066 46.5144 2.68657C46.5144 1.20538 45.3092 0 43.8282 0C42.337 0 41.142 1.20538 41.142 2.68657C41.142 3.98389 42.051 5.05648 43.2664 5.32207C41.142 12.2581 38.4558 13.0549 35.2487 8.12101C35.7492 7.87585 36.1066 7.35488 36.1066 6.7624C36.1066 5.92476 35.4325 5.25057 34.595 5.25057C33.7575 5.25057 33.0834 5.92476 33.0834 6.7624C33.0834 7.60004 33.7575 8.27424 34.595 8.27424C34.7074 8.27424 34.8197 8.26402 34.9218 8.23338C33.9822 14.5974 30.7138 13.7087 26.2096 8.96887C26.4547 8.69306 26.6079 8.33553 26.6079 7.93714C26.6079 7.0995 25.9338 6.42531 25.0963 6.42531C24.2588 6.42531 23.5847 7.0995 23.5847 7.93714C23.5847 8.77478 24.2588 9.44898 25.0963 9.44898C25.4946 9.43876 25.8521 9.28553 26.1279 9.04037ZM34.7686 50.2175C36.0249 50.1562 41.5607 49.5331 41.0909 43.5266C41.0909 43.5266 34.4214 43.261 34.5133 50.0847C35.2589 48.8691 36.1883 47.7761 37.2403 46.7444C38.3434 45.6616 39.5691 44.64 40.8151 43.6287L40.999 43.8535C39.7631 44.8546 38.5477 45.8659 37.4446 46.9487C36.413 47.9599 35.4938 49.0223 34.7686 50.2175ZM38.3026 33.0152C38.4354 34.3943 38.7928 35.7631 39.2831 37.1217C39.804 38.5723 40.4577 40.0228 41.1216 41.4631L40.8662 41.5857C40.1921 40.1352 39.5282 38.6846 39.0175 37.2239C38.5273 35.8346 38.1596 34.4454 38.0268 33.0255C34.9525 39.1239 41.0807 41.8002 41.0807 41.8002C44.1142 36.5905 39.4057 33.6179 38.3026 33.0152ZM3.72926 5.3425C4.64849 6.38444 5.54729 7.4366 6.34396 8.52962C6.95678 9.35704 7.49812 10.2151 7.95773 11.1038L7.94751 11.1345C2.18699 9.90866 3.60669 5.66938 3.72926 5.3425ZM8.08029 10.7361C8.36628 9.67371 8.66249 6.82369 4.19911 5.46508C5.03663 6.41509 5.84349 7.38552 6.56866 8.36617C7.13041 9.13231 7.64111 9.91887 8.08029 10.7361ZM14.9439 8.02908C14.0655 9.11188 13.2076 10.1947 12.4517 11.3183C11.8798 12.1764 11.3589 13.0447 10.9401 13.9538L10.9503 13.9845C16.6598 12.5339 15.0665 8.34575 14.9439 8.02908ZM10.7971 13.5759C11.2057 12.7485 11.6857 11.9415 12.2168 11.1549C12.9011 10.1334 13.6774 9.14252 14.4741 8.16187C10.0618 9.68392 10.4703 12.5339 10.7971 13.5759ZM3.57606 11.8393C3.54542 12.1764 3.24922 16.6506 9.1323 16.3646V16.334C8.46841 15.5883 7.7228 14.9038 6.91592 14.2603C5.86391 13.4022 4.7302 12.6054 3.57606 11.8393ZM9.15272 15.9356C9.16293 14.8426 8.71354 12.0028 4.0561 11.8291C5.10811 12.5442 6.13969 13.2592 7.08957 14.0356C7.83516 14.628 8.52968 15.2512 9.15272 15.9356ZM15.6997 13.9232C15.1379 15.0264 14.7498 16.2114 14.4638 17.4576C14.1574 18.7958 13.9532 20.1851 13.7591 21.5845L13.514 21.5539C13.708 20.1442 13.9123 18.7447 14.2187 17.4066C14.5149 16.1399 14.903 14.9243 15.4852 13.8006C10.2762 16.8856 13.565 21.8195 13.565 21.8195C18.3246 19.3781 16.2308 14.9038 15.6997 13.9232ZM5.00597 23.8216C5.7005 24.6899 8.98932 28.3776 13.0952 24.9453C13.0952 24.9453 9.84725 19.9808 4.97533 23.5663C6.23161 23.4743 7.50834 23.5867 8.79526 23.8216C10.1435 24.0566 11.5121 24.4243 12.8909 24.7921L12.8296 25.0372C11.461 24.6593 10.1128 24.3017 8.76462 24.0668C7.4777 23.8421 6.23161 23.7297 5.00597 23.8216ZM7.72281 29.9609C8.58076 30.7168 12.5947 33.8222 16.0878 29.6034C16.0878 29.6034 11.9002 25.2007 7.64111 29.7158C8.8974 29.3889 10.2047 29.2663 11.5325 29.2561C12.942 29.2459 14.3821 29.3582 15.8427 29.491L15.8223 29.7464C14.3821 29.6238 12.942 29.5115 11.5325 29.5217C10.2252 29.5217 8.94845 29.6442 7.72281 29.9609ZM17.5382 19.4802C17.2828 20.798 17.242 22.1668 17.3135 23.556C17.3952 25.0475 17.6097 26.5593 17.8242 28.0813L17.5586 28.1222C17.3339 26.5899 17.1194 25.0577 17.0377 23.5765C16.9662 22.1566 17.0071 20.7673 17.2726 19.4189C12.7582 24.22 17.6914 28.3878 17.6914 28.3878C21.9403 24.3835 18.3961 20.3383 17.5382 19.4802ZM11.2874 35.3545C12.3087 36.0287 16.9866 38.6948 20.0405 33.7303C20.0405 33.7303 14.9745 29.7158 11.1546 35.1093C12.4313 34.5781 13.7897 34.2615 15.189 34.047C16.67 33.8324 18.2123 33.7303 19.7545 33.6486L19.775 33.9244C18.2327 34.0061 16.7109 34.1083 15.2299 34.3228C13.851 34.5271 12.5232 34.8437 11.2874 35.3545ZM15.7201 40.319C16.8845 40.7992 22.1445 42.6277 24.2996 36.9991C24.2996 36.9991 18.3859 33.8835 15.5465 40.0943C16.7415 39.3078 18.0591 38.7255 19.4379 38.2454C20.8985 37.7448 22.4509 37.3464 24.0034 36.9685L24.0647 37.2443C22.5224 37.6223 20.9904 38.0104 19.5298 38.511C18.1714 38.9911 16.8845 39.5631 15.7201 40.319ZM21.3989 24.9453C21.3377 26.2835 21.5011 27.6421 21.7768 29.0109C22.073 30.4717 22.502 31.9427 22.9514 33.4136L22.6858 33.4954C22.2364 32.0142 21.8075 30.533 21.5113 29.062C21.2253 27.6727 21.0721 26.2937 21.1334 24.9147C17.3645 30.3287 22.8595 33.7201 22.8595 33.7201C26.4751 29.1641 22.3692 25.6706 21.3989 24.9453ZM21.7156 44.4153C22.931 44.7524 28.3749 45.9067 29.8252 40.0637C29.8252 40.0637 23.5745 37.704 21.5215 44.211C22.6042 43.2916 23.84 42.5459 25.1576 41.9024C26.5466 41.218 28.0276 40.6357 29.529 40.0739L29.6312 40.3395C28.14 40.9115 26.6692 41.4836 25.2801 42.168C23.983 42.7911 22.7778 43.5164 21.7156 44.4153ZM26.1074 29.4093C26.3321 30.7781 26.7815 32.1163 27.3433 33.4443C27.9561 34.8642 28.7017 36.2636 29.4677 37.6529L29.2226 37.7857C28.4566 36.376 27.7008 34.9765 27.0879 33.5566C26.5058 32.2082 26.0462 30.8394 25.8215 29.4297C23.1557 35.712 29.4371 37.9798 29.4371 37.9798C32.1335 32.5964 27.2514 29.9405 26.1074 29.4093ZM28.1093 47.3777C29.3554 47.5105 34.9218 47.7863 35.4223 41.79C35.4223 41.79 28.8753 40.4621 27.8846 47.2142C28.8141 46.1314 29.9069 45.2019 31.1019 44.354C32.3684 43.4551 33.7371 42.6481 35.1261 41.8513L35.2691 42.0965C33.8903 42.8933 32.5319 43.69 31.2654 44.589C30.101 45.4062 29.0183 46.3153 28.1093 47.3777ZM31.8986 32.2389C32.205 33.5975 32.7259 34.905 33.3694 36.1921C34.0639 37.5712 34.8912 38.9196 35.7287 40.2782L35.4938 40.4314C34.6461 39.0728 33.8085 37.7142 33.1242 36.3249C32.4706 35.0174 31.9292 33.669 31.6228 32.2798C29.3247 38.7051 35.7287 40.6153 35.7287 40.6153C38.1085 35.0787 33.0732 32.7088 31.8986 32.2389ZM4.09696 17.6006C4.14803 17.9377 4.90385 22.3507 10.552 20.706V20.6754C9.72471 20.1033 8.8361 19.613 7.91687 19.1738C6.69123 18.5915 5.40432 18.091 4.09696 17.6006ZM10.4805 20.2872C10.2252 19.2146 9.14251 16.5587 4.56678 17.4781C5.75157 17.9275 6.92616 18.3872 8.02924 18.9184C8.8974 19.327 9.71449 19.7765 10.4805 20.2872ZM53.235 50.2175C51.9787 50.1562 46.4429 49.5331 46.9127 43.5266C46.9127 43.5266 53.5924 43.261 53.4903 50.0847C52.7549 48.8691 51.8153 47.7761 50.7633 46.7444C49.6602 45.6616 48.4346 44.64 47.1885 43.6287L47.0046 43.8535C48.2405 44.8546 49.4559 45.8659 50.559 46.9487C51.5906 47.9599 52.5098 49.0223 53.235 50.2175ZM49.701 33.0152C48.598 33.6179 43.8895 36.5905 46.9331 41.79C46.9331 41.79 53.0511 39.1137 49.987 33.0152C49.8542 34.4351 49.4866 35.8244 48.9963 37.2137C48.4754 38.6744 47.8217 40.125 47.1476 41.5755L46.8923 41.4529C47.5664 40.0126 48.2201 38.5723 48.7307 37.1115C49.2108 35.7631 49.5683 34.3943 49.701 33.0152ZM84.2744 5.3425C84.3867 5.65917 85.8166 9.90866 80.0561 11.1345L80.0459 11.1038C80.5055 10.2151 81.0468 9.35704 81.6597 8.52962C82.4563 7.44682 83.3551 6.39466 84.2744 5.3425ZM79.9233 10.7361C80.3625 9.91887 80.8732 9.13231 81.435 8.36617C82.1601 7.37531 82.967 6.41509 83.8045 5.46508C79.3411 6.81348 79.6373 9.67371 79.9233 10.7361ZM73.0699 8.02908C72.9474 8.34575 71.3541 12.5339 77.0635 13.9743L77.0737 13.9436C76.6549 13.0345 76.1341 12.1662 75.5621 11.3081C74.7961 10.1947 73.9483 9.11188 73.0699 8.02908ZM77.2065 13.5759C77.5333 12.5237 77.9419 9.68392 73.5295 8.16187C74.3262 9.15274 75.1025 10.1436 75.7868 11.1549C76.3281 11.9415 76.8081 12.7485 77.2065 13.5759ZM84.4276 11.8393C83.2734 12.6157 82.1397 13.4022 81.0877 14.2501C80.291 14.8936 79.5352 15.5883 78.8713 16.3237V16.3544C84.7646 16.6506 84.4684 12.1764 84.4276 11.8393ZM78.8509 15.9356C79.4841 15.2512 80.1787 14.628 80.914 14.0356C81.8639 13.2592 82.8955 12.5339 83.9475 11.8291C79.2901 11.9925 78.8407 14.8323 78.8509 15.9356ZM72.3039 13.9232C71.7728 14.9038 69.679 19.3781 74.4386 21.799C74.4386 21.799 77.7274 16.8651 72.5184 13.7802C73.1006 14.9038 73.4887 16.1194 73.7849 17.3861C74.0913 18.7243 74.2956 20.1238 74.4896 21.5334L74.2445 21.5641C74.0505 20.1646 73.8564 18.7754 73.5398 17.4372C73.2538 16.2114 72.8657 15.0162 72.3039 13.9232ZM83.0078 23.8216C81.772 23.7297 80.5259 23.8421 79.2697 24.0668C77.9215 24.3017 76.563 24.6695 75.2046 25.0372L75.1433 24.7921C76.512 24.4141 77.8806 24.0566 79.2288 23.8216C80.5157 23.5969 81.7822 23.4845 83.0487 23.5663C78.1666 19.9808 74.9288 24.9453 74.9288 24.9453C79.0143 28.3776 82.3133 24.6899 83.0078 23.8216ZM80.2808 29.9609C79.0552 29.6442 77.7784 29.5319 76.4711 29.5217C75.0616 29.5115 73.6317 29.6238 72.1814 29.7464L72.1609 29.491C73.6113 29.3684 75.0616 29.2459 76.4711 29.2561C77.8091 29.2663 79.1164 29.3889 80.3625 29.7158C76.1034 25.2007 71.9158 29.6034 71.9158 29.6034C75.4191 33.8222 79.4229 30.7168 80.2808 29.9609ZM70.4654 19.4802C69.6075 20.3485 66.0634 24.3937 70.302 28.3776C70.302 28.3776 75.2455 24.22 70.731 19.4087C70.9966 20.7571 71.0374 22.1566 70.9557 23.5663C70.874 25.0577 70.6595 26.5797 70.4348 28.112L70.1693 28.0711C70.394 26.5491 70.6084 25.0372 70.6901 23.5458C70.7616 22.1566 70.7208 20.798 70.4654 19.4802ZM76.7264 35.3545C75.4804 34.8437 74.1526 34.5271 72.7737 34.3228C71.2928 34.098 69.7709 34.0061 68.2286 33.9244L68.2389 33.6486C69.7914 33.7303 71.3336 33.8324 72.8044 34.047C74.2139 34.2513 75.5621 34.5781 76.8388 35.1093C73.0291 29.7158 67.9529 33.7303 67.9529 33.7303C71.0272 38.7051 75.7051 36.0287 76.7264 35.3545ZM72.2937 40.319C71.1293 39.5631 69.8322 38.9911 68.4738 38.5212C67.0132 38.0206 65.4812 37.6325 63.9287 37.2545L64.0002 36.9787C65.5629 37.3567 67.1052 37.7551 68.5657 38.2556C69.9548 38.7357 71.2723 39.318 72.4673 40.1045C69.6177 33.9039 63.7142 37.0093 63.7142 37.0093C65.8693 42.6277 71.1293 40.7992 72.2937 40.319ZM66.6047 24.9453C65.6344 25.6706 61.5387 29.1641 65.1544 33.7201C65.1544 33.7201 70.6493 30.3287 66.8805 24.9147C66.9417 26.2937 66.7885 27.6727 66.5026 29.062C66.2064 30.533 65.7672 32.0039 65.328 33.4954L65.0624 33.4136C65.5118 31.9427 65.9408 30.4717 66.237 29.0109C66.5128 27.6421 66.666 26.2835 66.6047 24.9453ZM66.2881 44.4153C65.2258 43.5164 64.0206 42.7911 62.7235 42.1578C61.3344 41.4734 59.8636 40.9013 58.3725 40.3293L58.4746 40.0637C59.9658 40.6357 61.457 41.2078 62.8461 41.8922C64.1636 42.5357 65.3995 43.2814 66.4821 44.2008C64.4292 37.6938 58.1784 40.0535 58.1784 40.0535C59.6287 45.9067 65.0726 44.7524 66.2881 44.4153ZM61.8962 29.4093C60.7523 29.9405 55.8701 32.5964 58.5563 37.99C58.5563 37.99 64.8377 35.7222 62.1719 29.44C61.9472 30.8496 61.4876 32.2082 60.9055 33.5669C60.2926 34.9868 59.5368 36.3862 58.7708 37.7959L58.5257 37.6631C59.2815 36.2636 60.0373 34.8744 60.6501 33.4545C61.2323 32.1163 61.6715 30.7781 61.8962 29.4093ZM59.8943 47.3777C58.9853 46.3255 57.9128 45.4062 56.7383 44.5787C55.482 43.6798 54.1134 42.883 52.7345 42.0863L52.8775 41.8411C54.2665 42.6379 55.6454 43.4551 56.9017 44.3438C58.0967 45.1917 59.1998 46.1212 60.119 47.204C59.1283 40.4518 52.5813 41.7798 52.5813 41.7798C53.0818 47.7863 58.638 47.5105 59.8943 47.3777ZM56.105 32.2389C54.9407 32.7088 49.9053 35.0787 52.2851 40.6153C52.2851 40.6153 58.6891 38.7051 56.391 32.2798C56.0846 33.669 55.5433 35.0072 54.8896 36.3249C54.1951 37.7142 53.3678 39.0728 52.52 40.4314L52.2851 40.2782C53.1226 38.9298 53.9499 37.5814 54.6445 36.1921C55.2777 34.9153 55.7986 33.5975 56.105 32.2389ZM83.9067 17.6006C82.5993 18.091 81.3124 18.5915 80.097 19.1738C79.1675 19.613 78.2789 20.1136 77.4618 20.6754V20.706C83.0998 22.3507 83.8556 17.9377 83.9067 17.6006ZM77.5231 20.2872C78.2993 19.7765 79.1164 19.327 79.9744 18.9184C81.0775 18.3872 82.252 17.9275 83.4368 17.4781C78.8611 16.5587 77.7784 19.2146 77.5231 20.2872Z" fill="#9D958C"/>
</svg>