<svg width="52" height="52" viewBox="0 0 52 52" fill="none" xmlns="http://www.w3.org/2000/svg">
<rect width="52" height="52" rx="26" fill="#FF3932" fill-opacity="0.12"/>
<path d="M35 26.0138V21.3333C35 19.4665 35 18.5331 34.673 17.82C34.3854 17.1928 33.9265 16.6829 33.362 16.3633C32.7202 16 31.8802 16 30.2 16H21.8C20.1198 16 19.2798 16 18.638 16.3633C18.0735 16.6829 17.6146 17.1928 17.327 17.82C17 18.5331 17 19.4665 17 21.3333V30.6667C17 32.5335 17 33.4669 17.327 34.18C17.6146 34.8072 18.0735 35.3171 18.638 35.6367C19.2798 36 20.1198 36 21.8 36H25.0314" stroke="#FF3932" stroke-width="1.6" stroke-linecap="round" stroke-linejoin="round"/>
<path d="M21.2578 20.5829H30.7404" stroke="#FF3932" stroke-width="1.6" stroke-linecap="round"/>
<path d="M21.2578 24.5085H30.7378" stroke="#FF3932" stroke-width="1.6" stroke-linecap="round"/>
<path d="M21.2578 28.5098H23.7487" stroke="#FF3932" stroke-width="1.6" stroke-linecap="round"/>
<path d="M35.0009 31.0304L30.0312 36M30.0312 31.0304L35.0009 36" stroke="#FF3932" stroke-width="1.5" stroke-linecap="round" stroke-linejoin="round"/>
</svg>
